<?xml version="1.0" standalone="no"?>
<!DOCTYPE svg PUBLIC "-//W3C//DTD SVG 20010904//EN"
 "http://www.w3.org/TR/2001/REC-SVG-20010904/DTD/svg10.dtd">
<svg version="1.0" xmlns="http://www.w3.org/2000/svg"
 width="64.000000pt" height="64.000000pt" viewBox="0 0 64.000000 64.000000"
 preserveAspectRatio="xMidYMid meet">

<g transform="translate(0.000000,64.000000) scale(0.100000,-0.100000)"
fill="#000000" stroke="none">
<path d="M20 540 c-23 -23 -26 -49 -8 -72 21 -26 288 -198 308 -198 20 0 287
172 308 198 18 23 15 49 -8 72 -19 19 -33 20 -300 20 -267 0 -281 -1 -300 -20z"/>
<path d="M0 270 c0 -137 2 -152 20 -170 19 -19 33 -20 300 -20 267 0 281 1
300 20 18 18 20 33 20 170 0 83 -2 150 -5 150 -3 0 -67 -41 -143 -92 -108 -73
-144 -92 -172 -92 -28 0 -64 19 -172 92 -76 51 -140 92 -143 92 -3 0 -5 -67
-5 -150z"/>
</g>
</svg>
