<svg width="43" height="43" viewBox="0 0 43 43" fill="none" xmlns="http://www.w3.org/2000/svg">
<path d="M2.13333 2.29992C0.4 3.89992 0 7.63325 0 21.4999C0 42.2999 0.266667 42.8333 12.8 42.8333H21.3333V35.4999C21.3333 29.0999 21.0667 28.1666 18.6667 28.1666C16.6667 28.1666 16 27.2333 16 24.8333C16 22.4333 16.6667 21.4999 18.6667 21.4999C20.8 21.4999 21.3333 20.5666 21.3333 17.0999C21.3333 11.4999 24.8 8.16658 30.4 8.16658C34 8.16658 34.6667 8.69992 34.6667 11.3666C34.6667 13.3666 33.7333 14.8333 32 15.2333C30.4 15.6333 29.3333 17.0999 29.3333 18.6999C29.3333 20.8333 30.1333 21.4999 32.8 21.4999C35.4667 21.4999 36.1333 22.0333 35.4667 23.6333C35.0667 24.8333 34.6667 26.2999 34.6667 26.9666C34.6667 27.6333 33.4667 28.1666 32 28.1666C29.6 28.1666 29.3333 29.0999 29.3333 35.4999V42.8333H33.8667C41.8667 42.8333 42.6667 40.8333 42.6667 21.4999C42.6667 7.63325 42.2667 3.89992 40.5333 2.29992C37.4667 -0.76675 5.2 -0.76675 2.13333 2.29992Z" fill="#606066"/>
</svg>
