<svg width="43" height="43" viewBox="0 0 43 43" fill="none" xmlns="http://www.w3.org/2000/svg">
<path d="M2.66667 2.66666C0.266667 5.06666 0 7.06666 0 21.3333C0 35.6 0.266667 37.6 2.66667 40C6.4 43.7333 16 43.7333 16 40.1333C16 38.5333 14.8 37.0667 13.0667 36.5333C10 35.6 6.8 32.4 6.66667 30.1333C6.66667 29.4667 8.13333 30.2667 10 32C12.6667 34.5333 13.6 34.8 15.3333 33.3333C17.2 31.7333 16.9333 31.3333 13.4667 29.6C8.53333 27.3333 7.46667 24.4 8.66667 16.2667L9.46667 10H21.3333H33.2L34 16.2667C35.2 24.2667 34.1333 27.3333 29.6 29.2C26.2667 30.5333 26 31.2 26.4 36.6667C26.9333 42.6667 26.9333 42.6667 32.1333 42.6667C41.3333 42.6667 42.6667 40 42.6667 21.3333C42.6667 -0.133336 42.8 -2.23308e-06 21.3333 -2.23308e-06C7.06667 -2.23308e-06 5.06667 0.266664 2.66667 2.66666Z" fill="#606066"/>
</svg>
