<svg width="43" height="43" viewBox="0 0 43 43" fill="none" xmlns="http://www.w3.org/2000/svg">
<path d="M2.3 2.3C-0.766667 5.36666 -0.766667 37.6333 2.3 40.7C5.36667 43.7667 37.6333 43.7667 40.7 40.7C43.7667 37.6333 43.7667 5.36666 40.7 2.3C37.6333 -0.766669 5.36667 -0.766669 2.3 2.3ZM35.9 7.1C38.0333 9.23333 38.0333 33.7667 35.9 35.9C33.7667 38.0333 9.23333 38.0333 7.1 35.9C4.96667 33.7667 4.96667 9.23333 7.1 7.1C9.23333 4.96666 33.7667 4.96666 35.9 7.1Z" fill="#606066"/>
<path d="M8.70012 9.90008C8.43345 10.9667 8.16679 16.8334 8.43346 22.9667L8.83346 34.1667H21.5001H34.1668V21.5001V8.83341L21.7668 8.43341C12.3001 8.16675 9.23346 8.43341 8.70012 9.90008ZM32.1668 12.8334C32.1668 13.9001 31.2335 14.8334 30.1668 14.8334C29.1001 14.8334 28.1668 13.9001 28.1668 12.8334C28.1668 11.7667 29.1001 10.8334 30.1668 10.8334C31.2335 10.8334 32.1668 11.7667 32.1668 12.8334ZM24.8335 13.5001C31.7668 16.1667 31.7668 26.8334 24.8335 29.5001C17.5001 32.3001 10.7001 25.5001 13.5001 18.1667C14.5668 15.3667 16.7001 13.7667 21.1001 12.3001C21.2335 12.1667 22.8335 12.7001 24.8335 13.5001Z" fill="#606066"/>
<path d="M17.4999 17.5001C16.0333 18.9667 14.8333 20.7001 14.8333 21.5001C14.8333 23.2334 19.7666 28.1667 21.4999 28.1667C23.2333 28.1667 28.1666 23.2334 28.1666 21.5001C28.1666 20.7001 26.9666 18.9667 25.4999 17.5001C24.0333 16.0334 22.2999 14.8334 21.4999 14.8334C20.8333 14.8334 18.9666 16.0334 17.4999 17.5001Z" fill="#606066"/>
</svg>
