<svg width="258" height="258" viewBox="0 0 258 258" fill="none" xmlns="http://www.w3.org/2000/svg">
<path d="M10.2 10.1999C-3.40001 23.7999 -3.40001 233.4 10.2 247C23.8001 260.6 233.401 260.6 247.001 247C260.601 233.4 260.601 23.7999 247.001 10.1999C233.401 -3.40013 23.8001 -3.40013 10.2 10.1999ZM79.0002 34.2C92.6002 47.8 91.0002 71.8 76.6002 77.4C67.8001 81.4001 66.2001 85.4001 72.6002 92.6001C77.4002 99.0001 80.6002 129.4 79.0002 166.2C76.6002 227 75.8002 228.6 56.6001 228.6C37.4001 228.6 36.6001 227 34.2001 165.4C32.6001 114.2 34.2001 101.4 45.4001 93.4001C57.4001 83.8001 58.2001 83.0001 45.4001 78.2001C22.2 69.4 35.0001 24.5999 60.6001 24.5999C65.4001 24.5999 73.4002 28.5999 79.0002 34.2ZM139.8 95.8001C143 99.8001 155 99.0001 169.4 94.2001C191.8 85.4001 195.8 86.2001 213.4 107.8C231.001 127 233.401 136.6 231.001 179.8C228.6 226.2 227.8 228.6 208.6 228.6C190.2 228.6 188.6 225.4 186.2 188.6C181.4 113.4 147 109.4 143 183C140.6 225.4 139 228.6 120.6 228.6C101.4 228.6 100.6 226.2 98.2002 169.4C96.6002 136.6 97.4002 105.4 99.8002 99.0001C104.6 87.0001 133.4 84.6001 139.8 95.8001Z" fill="#EAE9E9"/>
</svg>
