<svg width="43" height="43" viewBox="0 0 43 43" fill="none" xmlns="http://www.w3.org/2000/svg">
<path d="M2.66667 2.66648C0.266667 5.06648 0 7.06648 0 21.3331C0 35.5998 0.266667 37.5998 2.66667 39.9998C5.06667 42.3998 7.06667 42.6665 21.3333 42.6665C42.8 42.6665 42.6667 42.7998 42.6667 21.3331C42.6667 -0.133519 42.8 -0.000185331 21.3333 -0.000185331C7.06667 -0.000185331 5.06667 0.266481 2.66667 2.66648ZM31.0667 11.8665L34.4 13.1998L32.1333 20.1331C29.2 29.0665 24.1333 33.3331 16.4 33.3331C10.2667 33.3331 7.73333 31.4665 12.2667 30.1331C15.2 29.4665 15.2 29.3331 12.6667 27.4665C11.2 26.2665 10.5333 25.3331 11.2 25.3331C11.8667 25.3331 11.4667 24.3998 10.5333 23.1998C8.26667 20.3998 7.73333 13.3331 9.86667 13.3331C10.6667 13.3331 12.5333 14.2665 13.8667 15.3331C17.0667 17.7331 21.3333 17.8665 21.3333 15.5998C21.3333 13.4665 24 10.6665 26.1333 10.6665C27.0667 10.6665 29.3333 11.1998 31.0667 11.8665Z" fill="#606066"/>
</svg>
