<svg width="722" height="810" viewBox="0 0 722 810" fill="none" xmlns="http://www.w3.org/2000/svg">
<path d="M197.6 16.8836C156 29.8836 96.2002 66.2837 62.4001 97.4838C5.20001 152.084 0 175.484 0 406.884C0 635.685 5.20001 661.685 62.4001 716.285C192.4 838.485 423.801 841.085 579.801 718.885C668.201 648.685 738.401 458.884 717.601 349.684C670.801 102.684 426.401 -53.3165 197.6 16.8836ZM561.601 185.884C595.401 271.684 351.001 547.285 210.6 578.485C70.2001 612.285 96.2002 627.885 325.001 643.485L559.001 656.485L301.601 661.685C57.2001 666.885 46.8001 664.285 83.2002 620.085C104 596.685 130 544.685 137.8 508.284C161.2 419.884 244.4 313.284 371.801 222.284C488.801 139.084 540.801 128.684 561.601 185.884Z" fill="#4E9763"/>
</svg>
